{"title":"Galtar and the golden lance","uid":8557906,"size":1120580256,"categoryP":"video","categoryS":"tv_shows","magnet":"?xt=urn:btih:6e628da545c47f083a508b502716f43358d1904d&amp;dn=Galtar+and+the+golden+lance&amp;tr=udp%3A%2F%2Ftracker.openbittorrent.com%3A80&amp;tr=udp%3A%2F%2Fopen.demonii.com%3A1337&amp;tr=udp%3A%2F%2Ftracker.coppersurfer.tk%3A6969&amp;tr=udp%3A%2F%2Fexodus.desync.com%3A6969","seeders":1,"leechers":4,"uploader":"raj4266","files":21,"time":1370810282,"description":"BY RAJ4266\n\n&quot;Galtar and the Golden Lance&quot; (1985)\n\nA first season component of the Funtastic World of Hanna-Barbera, Galtar and the Golden Lance was an outer space sword and sorcery affair featuring a light-hearted blonde warrior named Galtar. Searching for the vile Tormack, the despot responsible for the deaths of his parents, Galtar aligned himself with beautiful princess Goleeta and her feisty younger telekinetic brother Zorn. Goleeta and Zorn also had a score to settle with Tormack, who'd stolen Goleeta's magical golden shield. Tormack in turn coveted Galtar's equally magical double-edged golden lance, for whosoever possessed both lance and shield would be all-powerful. And both hero and villain had to deal as best they could with a brace of comic relief dwarves: Rak and Tuk, bumbling father-and-son mercenaries who excused their chronic double-crossing as &quot;the only work we know&quot;. Written by Matt Karpowich.\n\nStars:\nLou Richards, Joe Alaskey, Bob Arbogast\n\nFormat                           : MPEG-4\nFormat profile                   : Base Media\nCodec ID                         : isom\nFile size                        : 47.0 MiB\nDuration                         : 21mn 16s\nOverall bit rate                 : 309 Kbps\nWriting application              : Lavf53.4.0\n\nVideo\nID                               : 1\nFormat                           : AVC\nFormat/Info                      : Advanced Video Codec\nFormat profile                   : &lt;a class=&quot;__cf_email__&quot; href=&quot;/cdn-cgi/l/email-protection&quot; data-cfemail=&quot;0b43626c634b4738253b&quot;&gt;[email&amp;#160;protected]&lt;/a&gt;&lt;script cf-hash='f9e31' type=&quot;text/javascript&quot;&gt;\n/* &lt;![CDATA[ */!function(){try{var t=&quot;currentScript&quot;in document?document.currentScript:function(){for(var t=document.getElementsByTagName(&quot;script&quot;),e=t.length;e--;)if(t[e].getAttribute(&quot;cf-hash&quot;))return t[e]}();if(t&amp;&amp;t.previousSibling){var e,r,n,i,c=t.previousSibling,a=c.getAttribute(&quot;data-cfemail&quot;);if(a){for(e=&quot;&quot;,r=parseInt(a.substr(0,2),16),n=2;a.length-n;n+=2)i=parseInt(a.substr(n,2),16)^r,e+=String.fromCharCode(i);e=document.createTextNode(e),c.parentNode.replaceChild(e,c)}}}catch(u){}}();/* ]]&gt; */&lt;/script&gt;\nFormat settings, CABAC           : Yes\nFormat settings, ReFrames        : 4 frames\nCodec ID                         : avc1\nCodec ID/Info                    : Advanced Video Coding\nDuration                         : 21mn 16s\nBit rate mode                    : Variable\nBit rate                         : 268 Kbps\nWidth                            : 382 pixels\nHeight                           : 288 pixels\nDisplay aspect ratio             : 4:3\nFrame rate mode                  : Constant\nFrame rate                       : 25.000 fps\nColor space                      : YUV\nChroma subsampling               : 4:2:0\nBit depth                        : 8 bits\nScan type                        : Progressive\nBits/(Pixel*Frame)               : 0.097\nStream size                      : 40.7 MiB (87%)\nWriting library                  : x264 core 116\n\nAudio\nID                               : 2\nFormat                           : AAC\nFormat/Info                      : Advanced Audio Codec\nFormat profile                   : LC\nCodec ID                         : 40\nDuration                         : 21mn 16s\nBit rate mode                    : Variable\nBit rate                         : 38.0 Kbps\nMaximum bit rate                 : 128 Kbps\nChannel(s)                       : 1 channel\nChannel positions                : Front: C\nSampling rate                    : 22.05 KHz\nCompression mode                 : Lossy\nStream size                      : 5.78 MiB (12%)","torrent":{"xt":"urn:btih:6e628da545c47f083a508b502716f43358d1904d","amp;dn":"Galtar+and+the+golden+lance","amp;tr":["udp%3A%2F%2Ftracker.openbittorrent.com%3A80","udp%3A%2F%2Fopen.demonii.com%3A1337","udp%3A%2F%2Ftracker.coppersurfer.tk%3A6969","udp%3A%2F%2Fexodus.desync.com%3A6969"],"infoHash":"6e628da545c47f083a508b502716f43358d1904d","infoHashBuffer":{"type":"Buffer","data":[110,98,141,165,69,196,127,8,58,80,139,80,39,22,244,51,88,209,144,77]},"announce":[],"urlList":[]}}